<svg xmlns="http://www.w3.org/2000/svg" viewBox="0 0 256 256" role="img" aria-labelledby="title desc">
  <title id="title">Villa Merah Logo</title>
  <desc id="desc">Logo bulat merah dengan ornamen putih Villa Merah.</desc>
  <defs>
    <filter id="soft-shadow" x="-20%" y="-20%" width="140%" height="140%">
      <feDropShadow dx="0" dy="5" stdDeviation="5" flood-color="#991b1b" flood-opacity=".24"/>
    </filter>
  </defs>
  <circle cx="128" cy="128" r="121" fill="#ef1d2d"/>
  <circle cx="128" cy="128" r="113" fill="none" stroke="#fff" stroke-width="7" opacity=".9"/>
  <circle cx="128" cy="128" r="103" fill="none" stroke="#ffb3ba" stroke-width="3" opacity=".55"/>
  <g fill="#fff" filter="url(#soft-shadow)">
    <path d="M128 58c10 17 19 32 31 47 6 7 13 15 19 25-15 6-28 17-38 34-5 8-9 18-12 29-3-11-7-21-12-29-10-17-23-28-38-34 6-10 13-18 19-25 12-15 21-30 31-47Z"/>
    <path d="M106 70c-10 7-17 17-19 30-2 12 1 24 9 35 7 10 16 16 26 19-14-17-25-35-29-54-3-13 1-23 13-30Z"/>
    <path d="M150 70c10 7 17 17 19 30 2 12-1 24-9 35-7 10-16 16-26 19 14-17 25-35 29-54 3-13-1-23-13-30Z"/>
    <path d="M68 77c-10 9-15 19-14 31 1 15 13 25 28 23-10-7-15-16-13-27 1-8 7-13 14-16 9-4 10-18 2-25-2 9-7 14-17 14Z"/>
    <path d="M188 77c10 9 15 19 14 31-1 15-13 25-28 23 10-7 15-16 13-27-1-8-7-13-14-16-9-4-10-18-2-25 2 9 7 14 17 14Z"/>
    <path d="M57 127c-18 5-31 17-33 33-3 21 13 37 34 34-12-5-18-15-16-26 2-9 10-16 20-16 7 0 12 4 13 10 1 7-3 12-9 14 15 4 28-6 29-21 1-18-16-31-38-28Z"/>
    <path d="M199 127c18 5 31 17 33 33 3 21-13 37-34 34 12-5 18-15 16-26-2-9-10-16-20-16-7 0-12 4-13 10-1 7 3 12 9 14-15 4-28-6-29-21-1-18 16-31 38-28Z"/>
    <path d="M82 144c8 8 16 15 24 25 7 9 12 20 15 34-26-8-45-25-57-50 7-2 13-5 18-9Z"/>
    <path d="M174 144c-8 8-16 15-24 25-7 9-12 20-15 34 26-8 45-25 57-50-7-2-13-5-18-9Z"/>
    <path d="M115 188c4 12 8 21 13 27 5-6 9-15 13-27-5 3-9 5-13 5s-8-2-13-5Z"/>
  </g>
</svg>
